<?xml version="1.0" encoding="UTF-8" standalone="no"?>
<svg viewBox="0 0 66 135" xmlns="http://www.w3.org/2000/svg">
    <g transform="matrix(1,0,0,1,-8,-18)">
        <g id="Background">
            <g>
                <rect id="Gradient-Fill-1" x="8" y="18" width="66" height="135" style="fill:url(#_Linear1);"/>
            </g>
            <path id="FloorShadow" d="M33,152L33,151L32,151L32,150L31,150L31,149L29,149L29,147L26,147L26,146L20,146L20,145L15,145L15,144L10,144L10,143L9,143L9,142L8,142L8,137L9,137L9,136L10,136L10,135L15,135L15,134L20,134L20,133L26,133L26,132L29,132L29,130L31,130L31,129L66,129L66,135L68,135L68,136L69,136L69,137L70,137L70,139L71,139L71,141L72,141L72,142L73,142L73,143L74,143L74,146L73,146L73,148L72,148L72,150L70,150L70,152L33,152Z" style="fill-opacity:0.25;"/>
        </g>
        <g id="Base">
            <g id="Body">
                <g id="RightArm">
                    <path id="RightArmSkin" d="M34,59L31,59L31,60L29,60L29,61L27,61L27,62L26,62L26,63L25,63L25,65L24,65L24,99L25,99L25,102L26,102L26,103L27,103L27,104L28,104L28,105L31,105L31,104L32,104L32,102L34,102L34,76L35,76L35,75L36,75L36,72L37,72L37,67L36,67L36,64L35,64L35,62L34,62L34,59Z" style="fill:rgb(179,129,97);"/>
                    <path id="RightArmShadow" d="M29,105L29,103L30,103L30,99L31,99L31,75L32,75L32,72L33,72L33,66L32,66L32,59L34,59L34,62L35,62L35,64L36,64L36,67L37,67L37,72L36,72L36,75L35,75L35,76L34,76L34,102L32,102L32,104L31,104L31,105L29,105Z" style="fill-opacity:0.03;"/>
                </g>
                <g id="LeftArm">
                    <path id="LeftArmSkin" d="M65,60L68,60L68,61L69,61L69,63L70,63L70,97L69,97L69,99L68,99L68,101L66,101L66,76L65,76L65,75L64,75L64,74L63,74L63,71L62,71L62,67L63,67L63,64L64,64L64,62L65,62L65,60Z" style="fill:rgb(179,129,97);"/>
                    <path id="LeftArmShadow" d="M68,97L69,97L69,99L66,99L66,76L65,76L65,75L64,75L64,74L63,74L63,71L62,71L62,67L63,67L63,64L64,64L64,62L65,62L65,61L66,61L66,64L67,64L67,67L68,67L68,97Z" style="fill-opacity:0.03;"/>
                </g>
                <g id="Neck">
                    <path id="Neck1" d="M55,59L54,59L54,60L53,60L53,61L52,61L52,62L51,62L51,63L50,63L50,64L48,64L48,63L47,63L47,62L46,62L46,61L45,61L45,60L44,60L44,59L43,59L43,52L44,52L44,53L45,53L45,54L47,54L47,55L48,55L48,56L50,56L50,57L53,55L55,55L55,59Z" style="fill:rgb(179,129,97);"/>
                    <path id="NeckShadow" d="M49,56L49,58L50,58L50,62L49,62L49,64L47,64L47,63L46,63L46,62L45,62L45,61L44,61L44,60L43,60L43,59L42,59L42,52L44,52L44,53L45,53L45,54L47,54L47,55L48,55L48,56L49,56Z" style="fill-opacity:0.03;"/>
                </g>
                <g id="Clothes">
                    <path id="Pants" d="M33,106L66,106L66,134L54,134L54,133L51,133L51,134L36,134L36,133L33,133L33,106Z" style="fill:rgb(45,47,22);"/>
                    <path id="Boots" d="M32,132L37,132L37,133L51,133L51,132L55,132L55,133L67,133L67,141L69,141L69,142L71,142L71,143L72,143L72,147L71,147L71,148L70,148L70,149L34,149L34,148L33,148L33,147L32,147L32,132Z" style="fill:rgb(12,12,12);"/>
                    <path id="Shirt" d="M33,62L33,58L34,58L34,57L43,57L43,58L44,58L44,59L45,59L45,60L46,60L46,61L47,61L47,62L48,62L48,63L50,63L50,62L51,62L53,59L54,58L55,58L55,57L63,57L63,58L64,58L64,59L66,59L66,62L65,62L65,64L64,64L64,67L63,67L63,71L64,71L64,74L65,74L65,75L66,75L66,76L67,76L67,106L66,106L66,107L33,107L33,106L32,106L32,102L33,102L33,76L34,76L34,75L35,75L35,72L36,72L36,67L35,67L35,64L34,64L34,62L33,62Z" style="fill:rgb(22,18,15);"/>
                </g>
                <path id="BodyStroke" d="M42,51L43,51L43,58L44,58L44,59L45,59L45,60L46,60L46,61L47,61L47,62L48,62L48,63L50,63L50,62L53,62L53,59L54,59L54,58L55,58L55,55L56,55L56,57L63,57L63,58L64,58L64,59L66,59L66,60L68,60L68,61L69,61L69,63L70,63L70,97L69,97L69,99L68,99L68,101L67,101L67,106L66,106L66,133L67,133L67,141L69,141L69,142L71,142L71,143L72,143L72,147L71,147L71,148L70,148L70,149L34,149L34,148L33,148L33,147L32,147L32,132L33,132L33,106L32,106L32,104L31,104L31,105L28,105L28,104L27,104L27,103L26,103L26,102L25,102L25,100L24,100L24,65L25,65L25,63L26,63L26,62L27,62L27,61L29,61L29,60L31,60L31,59L33,59L33,58L34,58L34,57L42,57L42,51ZM44,136L44,134L36,134L36,133L33,133L33,146L34,146L34,147L55,147L55,146L56,146L56,144L55,144L55,143L53,143L53,142L45,142L45,141L51,141L51,134L50,134L50,133L46,133L46,134L45,134L45,135L47,135L47,137L48,137L48,139L49,139L49,140L47,140L47,138L46,138L46,136L44,136ZM34,107L34,132L37,132L37,133L45,133L45,132L50,132L50,115L51,115L51,132L55,132L55,133L60,133L60,132L65,132L65,107L34,107ZM36,114L38,114L38,113L40,113L40,111L41,111L41,109L42,109L42,112L41,112L41,114L39,114L39,115L36,115L36,114ZM66,61L66,64L65,64L65,67L64,67L64,71L65,71L65,75L66,75L66,74L67,74L67,98L68,98L68,96L69,96L69,64L68,64L68,62L67,62L67,61L66,61ZM34,62L33,62L33,60L32,60L32,61L30,61L30,62L28,62L28,63L27,63L27,64L26,64L26,66L25,66L25,99L26,99L26,101L27,101L27,99L28,99L28,103L29,103L29,99L30,99L30,103L31,103L31,99L32,99L32,102L33,102L33,73L34,73L34,75L35,75L35,72L36,72L36,67L35,67L35,64L34,64L34,62ZM35,75L35,76L34,76L34,103L33,103L33,105L34,105L34,106L65,106L65,105L66,105L66,76L64,76L64,72L63,72L63,66L64,66L64,63L65,63L65,60L63,60L63,59L62,59L62,58L56,58L56,59L55,59L55,60L54,60L54,63L51,63L51,64L47,64L47,63L46,63L46,62L45,62L45,61L44,61L44,60L43,60L43,59L42,59L42,58L35,58L35,59L34,59L34,62L35,62L35,64L36,64L36,67L37,67L37,72L36,72L36,75L35,75ZM70,147L70,146L71,146L71,144L70,144L70,143L68,143L68,142L60,142L60,141L66,141L66,134L65,134L65,133L61,133L61,134L60,134L60,135L62,135L62,137L63,137L63,139L64,139L64,140L62,140L62,138L61,138L61,136L59,136L59,134L54,134L54,133L52,133L52,141L54,141L54,142L56,142L56,143L57,143L57,147L70,147Z"/>
            </g>
        </g>
        <g id="Head">
            <path id="Skin" d="M39,33L40,33L40,27L41,27L41,26L42,26L42,25L46,25L46,24L48,24L48,23L50,23L50,22L54,22L54,23L55,23L55,24L56,24L56,25L57,25L57,26L58,26L58,29L59,29L59,35L58,35L58,45L53,45L53,44L46,44L45.999,44.999L45,45L45,46L44,46C44,46 43.997,46.994 44,47L42,47L42,46L41,46L41,44L40,44L40,43L39,43L39,33ZM47,46L48,46L48,47L55,47L55,50L53,50L53,48L51,48L51,50L48,50L48,49L47,49L47,46Z" style="fill:rgb(179,129,97);"/>
            <path id="HairAndBeard" d="M44,47L44,46L45,46L45,45L46,45L46,44L53,44L53,45L54,45L54,47L48,47L48,46L47,46L47,49L48,49L48,50L50,50L50,49L51,49L51,48L53,48L53,49L54,49L54,50L57,50L57,53L56,53L56,55L55,55L55,56L54,56L54,69L51,69L51,58L50,58L50,57L48,57L48,56L47,56L47,55L45,55L45,54L44,54L44,53L43,53L43,52L42,52L42,51L41,51L41,49L40,49L40,47L44,47ZM53,22L50,22L50,23L48,23L48,24L46,24L46,25L42,25L42,26L41,26L41,27L40,27L40,33L39,33L39,35L36,35L36,32L35,32L35,31L33,31L33,30L31,30L31,28L30,28L30,25L31,25L31,24L31,23L33,23L33,22L36,22L36,23.018L37,23L37,24L38,24L38,23L39,23L39,22L40,22L40,21L41,21L41,20L42,20L42,19L44,19L44,18L49,18L49,19L52,19L52,20L53,20L53,22Z" style="fill:rgb(18,11,8);"/>
            <path id="HeadShadows" d="M40,32L40,39L41,39L41,42L42,42L42,43L43,43L43,44L45,44L45,45L43,45L43,47L42.021,47L42,46L41,46.024L41,44L40,44L40,43L39,43L39,32L40,32ZM45,33L48,33L48,34L51,34L51,35L52,35L52,36L53,36L53,37L54,37L54,40L55,40L55,41L56,41L56,43L50,43L50,42L49,42L49,40L51,40L51,38L50,38L50,36L46,36L46,35L45,35L45,33ZM55,36L55,33L56,33L56,32L57,32L57,26L58,26L58,29L59,29L59,36L55,36Z" style="fill-opacity:0.03;"/>
            <path id="Lights" d="M52,35L54,35L54,36L55,36L55,39L56,39L56,41L55,41L55,40L54,40L54,37L53,37L53,36L52,36L52,35ZM46,32L45,32L45,33L43,33L43,32L44,32L44,31L46,31L46,32ZM57,36L58,36L58,38L57,38L57,36Z" style="fill:rgb(187,134,102);"/>
            <path id="HeadStroke" d="M31,28L30,28L30,25L31,25L31,28ZM31,25L31,23L33,23L33,24L32,24L32,25L31,25ZM33,23L33,22L36,22L36,23L33,23ZM36,23L37,23L37,24L36,24L36,23ZM37,24L38,24L38,25L37,25L37,24ZM38,24L38,23L39,23L39,24L38,24ZM39,23L39,22L40,22L40,23L39,23ZM40,22L40,21L41,21L41,22L40,22ZM41,21L41,20L42,20L42,21L41,21ZM42,20L42,19L44,19L44,20L42,20ZM44,19L44,18L49,18L49,19L44,19ZM49,19L52,19L52,20L49,20L49,19ZM52,20L55,20L55,21L56,21L56,22L57,22L57,23L58,23L58,25L59,25L59,28L60,28L60,35L59,35L59,34L58,34L58,35L55,35L55,34L56,34L56,33L59,33L59,29L58,29L58,26L57,26L57,25L56,25L56,24L55,24L55,23L54,23L54,22L50,22L50,21L52,21L52,20ZM59,35L59,45L58,45L58,35L59,35ZM58,45L58,47L57,47L57,53L56,53L56,51L54,51L54,50L55,50L55,47L48,47L48,46L47,46L47,49L48,49L48,50L50,50L50,51L47,51L47,50L46,50L46,46L44,46L44,48L41,48L41,49L40,49L40,48L39,48L39,47L38,47L38,42L37,42L37,35L36,35L36,32L37,32L37,34L38,34L38,33L39,33L39,43L40,43L40,44L41,44L41,46L42,46L42,47L43,47L43,45L45,45L45,44L46,44L46,43L48,43L48,44L53,44L53,45L49,45L49,46L53,46L53,45L58,45ZM56,53L56,56L54,56L54,69L53,69L53,71L52,71L52,69L51,69L51,58L50,58L50,57L52,57L52,68L53,68L53,55L55,55L55,53L56,53ZM50,57L48,57L48,56L50,56L50,57ZM48,56L47,56L47,55L48,55L48,56ZM47,55L45,55L45,54L47,54L47,55ZM45,54L44,54L44,53L45,53L45,54ZM44,53L43,53L43,52L44,52L44,53ZM43,52L42,52L42,51L43,51L43,52ZM42,51L41,51L41,49L42,49L42,51ZM36,32L35,32L35,31L36,31L36,32ZM35,31L33,31L33,30L35,30L35,31ZM33,30L31,30L31,28L32,28L32,29L33,29L33,30ZM39,33L39,26L41,26L41,27L40,27L40,33L39,33ZM41,26L41,25L42,25L42,26L41,26ZM42,25L42,24L46,24L46,25L42,25ZM46,24L46,23L48,23L48,24L46,24ZM48,23L48,22L50,22L50,23L48,23ZM54,50L53,50L53,49L54,49L54,50ZM53,49L51,49L51,48L53,48L53,49ZM51,49L51,50L50,50L50,49L51,49ZM45,33L45,34L43,34L43,33L45,33ZM45,33L45,32L51,32L51,33L52,33L52,35L51,35L51,34L48,34L48,33L45,33Z"/>
            <rect id="BraidRing" x="51" y="64" width="3" height="3" style="fill:rgb(74,71,75);"/>
        </g>
    </g>
    <defs>
        <linearGradient id="_Linear1" x1="0" y1="0" x2="1" y2="0" gradientUnits="userSpaceOnUse" gradientTransform="matrix(59.7031,-172,172,59.7031,18.1484,172)"><stop offset="0" style="stop-color:white;stop-opacity:0"/><stop offset="1" style="stop-color:white;stop-opacity:0"/></linearGradient>
    </defs>
</svg>
